<svg xmlns="http://www.w3.org/2000/svg" viewBox="0 0 380 300" fill="none">
  <!-- Downtown El Paso skyline with lit windows (Scenic Drive at night). -->
  <g stroke="#141118" stroke-width="3" stroke-linejoin="round">
    <rect x="12" y="150" width="60" height="150" fill="#5b2f52"/>
    <rect x="80" y="96" width="46" height="204" fill="#7a3f66"/>
    <!-- tall tower (Wells Fargo Plaza) -->
    <rect x="150" y="40" width="70" height="260" fill="#3f2145"/>
    <rect x="170" y="20" width="30" height="20" fill="#3f2145"/>
    <rect x="228" y="120" width="52" height="180" fill="#7a3f66"/>
    <rect x="288" y="168" width="44" height="132" fill="#5b2f52"/>
    <rect x="336" y="196" width="32" height="104" fill="#7a3f66"/>
  </g>
  <!-- window lights -->
  <g fill="#ffd21e">
    <rect x="24" y="164" width="7" height="9"/><rect x="40" y="164" width="7" height="9"/><rect x="56" y="164" width="7" height="9"/>
    <rect x="24" y="186" width="7" height="9"/><rect x="56" y="186" width="7" height="9"/>
    <rect x="24" y="208" width="7" height="9"/><rect x="40" y="208" width="7" height="9"/>
    <rect x="90" y="112" width="7" height="9"/><rect x="106" y="112" width="7" height="9"/>
    <rect x="90" y="134" width="7" height="9"/><rect x="106" y="134" width="7" height="9"/>
    <rect x="90" y="156" width="7" height="9"/>
    <rect x="162" y="60" width="8" height="10"/><rect x="182" y="60" width="8" height="10"/><rect x="202" y="60" width="8" height="10"/>
    <rect x="162" y="86" width="8" height="10"/><rect x="202" y="86" width="8" height="10"/>
    <rect x="182" y="112" width="8" height="10"/><rect x="162" y="112" width="8" height="10"/>
    <rect x="162" y="138" width="8" height="10"/><rect x="202" y="138" width="8" height="10"/>
    <rect x="240" y="138" width="7" height="9"/><rect x="258" y="138" width="7" height="9"/>
    <rect x="240" y="160" width="7" height="9"/><rect x="258" y="160" width="7" height="9"/>
    <rect x="300" y="186" width="7" height="9"/><rect x="318" y="186" width="7" height="9"/>
  </g>
</svg>
